<?xml version="1.0" encoding="UTF-8" standalone="no"?>
<svg
   version="1.0"
   width="8000.000000pt"
   height="5331.000000pt"
   viewBox="0 0 8000.000000 5331.000000"
   preserveAspectRatio="xMidYMid meet"
   id="svg30"
   sodipodi:docname="dalmatian-spot.svg"
   inkscape:version="1.2.2 (b0a8486541, 2022-12-01)"
   xmlns:inkscape="http://www.inkscape.org/namespaces/inkscape"
   xmlns:sodipodi="http://sodipodi.sourceforge.net/DTD/sodipodi-0.dtd"
   xmlns="http://www.w3.org/2000/svg"
   xmlns:svg="http://www.w3.org/2000/svg">
  <defs
     id="defs34" />
  <sodipodi:namedview
     id="namedview32"
     pagecolor="#ffffff"
     bordercolor="#000000"
     borderopacity="0.25"
     inkscape:showpageshadow="2"
     inkscape:pageopacity="0.0"
     inkscape:pagecheckerboard="0"
     inkscape:deskcolor="#d1d1d1"
     inkscape:document-units="pt"
     showgrid="false"
     inkscape:zoom="0.11409679"
     inkscape:cx="5771.4157"
     inkscape:cy="3589.058"
     inkscape:window-width="1920"
     inkscape:window-height="1043"
     inkscape:window-x="0"
     inkscape:window-y="0"
     inkscape:window-maximized="1"
     inkscape:current-layer="g28" />
  <g
     transform="translate(0.000000,5331.000000) scale(0.100000,-0.100000)"
     fill="#000000"
     stroke="none"
     id="g28">
    <path
       d="M33380 51628 c-3 -3 -58 -8 -124 -12 -183 -10 -355 -34 -591 -81 -640 -129 -1234 -402 -1724 -794 -195 -156 -321 -280 -546 -536 -543 -619 -1176 -1116 -2015 -1582 -291 -162 -435 -235 -1312 -667 -831 -409 -1255 -680 -1617 -1031 -430 -417 -674 -875 -800 -1500 -50 -245 -66 -447 -66 -795 1 -469 65 -820 222 -1210 532 -1326 2041 -2172 4203 -2356 146 -13 307 -18 560 -18 354 0 421 3 980 49 410 34 416 34 595 45 209 13 616 13 780 0 916 -74 1527 -435 2117 -1250 173 -239 297 -440 645 -1050 309 -539 410 -706 577 -945 480 -688 1015 -1086 1629 -1210 484 -97 993 -18 1502 235 193 96 327 179 500 310 558 421 993 1019 1208 1660 98 292 169 663 196 1025 16 209 6 782 -18 1005 -12 107 -26 222 -31 255 -5 33 -21 132 -35 220 -88 543 -260 1204 -527 2015 -56 170 -842 2501 -1415 4195 -351 1040 -621 1649 -960 2169 -236 361 -529 686 -832 920 -92 71 -354 245 -470 311 -538 306 -1243 531 -1866 594 -55 6 -120 13 -145 16 -62 7 -614 19 -620 13z"
       id="path2"
       style="fill:#ffffff;fill-opacity:1" />
    <path
       d="M66030 51094 c-341 -27 -607 -77 -885 -169 -71 -24 -229 -78 -350 -120 -509 -177 -984 -298 -1530 -390 -148 -25 -315 -55 -370 -66 -569 -117 -1089 -354 -1492 -678 -113 -90 -307 -284 -389 -386 -323 -406 -479 -863 -461 -1355 24 -663 333 -1173 874 -1443 281 -141 596 -215 1268 -297 375 -47 564 -78 791 -134 863 -213 1715 -692 2591 -1457 503 -440 901 -855 1758 -1834 431 -492 636 -723 809 -910 949 -1027 1682 -1622 2508 -2036 960 -480 1910 -651 2778 -498 577 101 1098 346 1590 747 124 102 425 400 532 527 607 726 1002 1608 1222 2730 53 270 108 632 131 860 4 33 8 71 10 85 2 14 6 54 10 90 3 36 8 81 10 100 13 95 52 632 60 825 3 72 8 148 10 170 12 108 20 475 20 885 -1 592 -25 847 -119 1235 -221 909 -762 1474 -1611 1684 -376 93 -846 112 -1345 55 -334 -38 -606 -93 -1250 -254 -1038 -259 -1416 -324 -1915 -329 -730 -7 -1255 173 -1892 647 -171 128 -342 269 -693 572 -472 408 -728 600 -1025 771 -328 188 -715 311 -1130 359 -92 11 -434 20 -515 14z"
       id="path4"
       style="fill:#ffffff;fill-opacity:1" />
    <path
       d="M18835 50903 c-237 -29 -462 -84 -651 -159 -211 -83 -338 -153 -599 -329 -229 -155 -334 -216 -548 -320 -348 -169 -662 -263 -1078 -322 -106 -15 -185 -18 -549 -15 -234 1 -481 -2 -550 -8 -169 -14 -395 -52 -556 -95 -662 -174 -1230 -630 -1776 -1425 -144 -210 -326 -515 -563 -945 -389 -706 -573 -1008 -793 -1300 -448 -596 -1001 -1052 -1777 -1462 -543 -288 -1118 -520 -2175 -878 -1052 -357 -1437 -502 -1970 -745 -950 -431 -1714 -1015 -2155 -1645 -406 -581 -630 -1280 -624 -1955 2 -234 11 -328 50 -523 201 -1013 969 -1663 2164 -1832 260 -36 363 -43 715 -43 317 0 417 4 725 33 68 7 412 44 455 50 105 14 653 74 775 85 66 6 138 12 160 15 222 24 759 29 985 9 963 -83 1787 -478 2865 -1373 176 -146 353 -299 710 -616 909 -805 1393 -1166 1959 -1460 377 -196 775 -335 1126 -394 571 -97 1211 -10 1715 233 578 278 947 716 1085 1289 57 236 65 322 65 667 -1 350 -7 433 -81 1024 -63 512 -77 676 -78 956 -1 264 9 373 51 559 66 302 195 543 398 746 278 278 652 439 1205 519 203 30 473 53 945 81 89 6 384 31 480 41 212 23 475 75 635 126 502 160 818 477 937 937 37 146 43 381 13 555 -62 364 -237 749 -516 1132 -129 177 -217 282 -485 575 -611 669 -840 985 -994 1368 -93 232 -129 419 -128 661 3 454 146 807 636 1571 470 734 612 1075 656 1574 9 102 7 356 -4 455 -39 346 -134 669 -295 995 -429 871 -1214 1466 -2083 1580 -107 14 -397 19 -482 8z"
       id="path6"
       style="fill:#ffffff;fill-opacity:1" />
    <path
       d="M48000 50280 c-119 -7 -214 -14 -345 -26 -33 -3 -170 -21 -304 -40 -1142 -163 -2054 -462 -2666 -874 -169 -114 -284 -208 -420 -344 -303 -303 -479 -626 -541 -994 -23 -135 -15 -331 20 -465 77 -300 244 -576 511 -843 262 -262 481 -411 1085 -734 291 -156 420 -229 580 -328 510 -319 837 -674 1094 -1189 200 -402 345 -915 405 -1438 44 -379 45 -425 47 -1645 0 -646 3 -1188 6 -1205 3 -16 9 -91 13 -165 10 -213 31 -453 65 -740 105 -906 309 -1816 600 -2674 505 -1491 1154 -2618 1905 -3309 711 -655 1464 -965 2355 -971 240 -1 371 6 579 34 989 132 1990 612 2812 1347 155 138 451 441 584 597 547 640 985 1401 1291 2241 242 664 391 1354 456 2105 20 235 15 1095 -7 1230 -2 14 -7 57 -10 95 -95 1138 -462 2472 -1018 3695 -898 1977 -2311 3816 -3867 5031 -1178 920 -2482 1446 -3925 1584 -33 3 -109 10 -170 16 -137 13 -966 20 -1135 9z"
       id="path8"
       style="fill:#ffffff;fill-opacity:1" />
    <path
       d="M65862 38645 c-163 -19 -279 -39 -447 -80 -1043 -251 -2001 -996 -2560 -1990 -279 -496 -377 -659 -573 -954 -770 -1161 -1705 -2134 -2827 -2941 -147 -106 -522 -353 -772 -510 -952 -596 -1351 -1092 -1438 -1785 -9 -66 -9 -304 0 -380 54 -499 283 -983 645 -1368 361 -383 892 -660 1503 -786 302 -62 487 -79 867 -79 394 0 646 25 1060 104 468 89 873 204 1800 509 1095 360 1642 507 2445 655 543 100 1269 190 1735 215 63 4 128 8 145 10 200 26 1450 25 1704 0 20 -2 83 -6 141 -10 225 -13 638 -54 1095 -109 215 -26 459 -54 520 -61 33 -3 78 -8 100 -10 22 -2 69 -7 105 -10 36 -3 112 -10 170 -16 145 -14 799 -20 945 -8 355 28 703 102 1014 216 141 52 399 178 511 249 584 371 905 865 1002 1539 21 147 15 491 -11 670 -140 960 -665 1755 -1766 2676 -272 227 -154 134 -2313 1813 -1318 1024 -1624 1259 -1867 1433 -809 577 -1486 890 -2135 987 -58 8 -123 18 -145 21 -87 14 -531 13 -653 0z"
       id="path10"
       style="fill:#ffffff;fill-opacity:1" />
    <path
       d="M27990 36647 c-3 -2 -69 -7 -147 -11 -488 -22 -1081 -159 -1546 -357 -607 -259 -1126 -613 -1641 -1119 -575 -565 -1042 -1203 -1516 -2075 -386 -707 -717 -1495 -1130 -2680 -201 -578 -255 -704 -413 -965 -371 -616 -798 -1045 -1347 -1355 -649 -366 -1128 -997 -1304 -1716 -51 -208 -69 -365 -70 -599 0 -308 40 -559 132 -830 154 -448 384 -825 678 -1110 394 -383 859 -592 1504 -677 163 -21 674 -24 865 -5 533 54 1026 165 1680 378 591 193 957 256 1495 258 162 1 339 -2 393 -7 756 -58 1474 -312 2000 -706 295 -221 560 -489 1088 -1101 561 -650 829 -905 1225 -1163 465 -303 987 -495 1580 -579 138 -19 201 -22 474 -22 353 0 465 10 756 69 713 145 1331 453 1777 884 415 401 661 853 796 1461 58 261 107 546 137 800 21 184 30 686 15 874 -59 723 -280 1311 -776 2061 -105 158 -182 267 -640 905 -712 990 -1116 1750 -1424 2678 -217 651 -353 1278 -461 2122 -33 261 -37 289 -81 545 -196 1162 -568 2086 -1115 2772 -105 131 -404 430 -534 533 -513 405 -1112 640 -1826 715 -142 15 -613 32 -624 22z"
       id="path12"
       style="fill:#ffffff;fill-opacity:1" />
    <path
       d="M42180 33214 c-382 -22 -692 -78 -1010 -184 -314 -104 -563 -224 -833 -403 -796 -527 -1389 -1380 -1661 -2387 -59 -217 -116 -539 -133 -750 -13 -151 -9 -702 5 -820 76 -629 270 -1169 594 -1654 196 -294 367 -497 682 -812 244 -244 354 -343 641 -584 739 -619 1296 -1235 1792 -1980 521 -784 888 -1596 1143 -2534 97 -354 198 -623 345 -911 233 -458 607 -979 939 -1310 487 -484 1085 -783 1737 -869 181 -24 242 -28 430 -28 187 1 240 4 434 28 755 95 1498 455 2026 983 570 571 954 1456 1026 2366 13 157 9 745 -5 870 -94 821 -321 1482 -752 2185 -244 399 -522 770 -1140 1520 -379 460 -539 661 -717 899 -465 619 -776 1186 -953 1735 -76 237 -129 457 -241 1006 -183 892 -334 1308 -642 1770 -704 1053 -1929 1753 -3247 1854 -101 8 -388 14 -460 10z"
       id="path14"
       style="fill:#ffffff;fill-opacity:1" />
    <path
       d="M8493 31588 c-280 -23 -535 -109 -828 -278 -608 -350 -1011 -793 -1239 -1362 -148 -368 -223 -712 -321 -1468 -74 -566 -127 -893 -191 -1168 -202 -873 -570 -1554 -1177 -2179 -304 -312 -569 -529 -1082 -886 -408 -283 -658 -641 -758 -1084 -19 -85 -21 -127 -21 -318 0 -241 11 -320 74 -505 142 -425 496 -730 1069 -921 192 -63 407 -117 791 -195 706 -145 924 -207 1215 -349 316 -154 526 -333 707 -604 245 -367 367 -811 483 -1766 93 -764 215 -1214 427 -1585 321 -560 866 -1020 1518 -1278 531 -211 1054 -281 1615 -217 173 20 428 83 610 152 534 201 1023 602 1424 1166 346 488 635 1094 979 2057 342 954 2003 5686 2051 5844 140 453 243 925 266 1221 4 44 9 91 11 105 10 55 12 412 3 515 -38 435 -166 798 -383 1085 -74 98 -270 287 -371 358 -300 212 -673 347 -1120 407 -66 8 -133 18 -150 20 -41 5 -252 23 -350 29 -146 10 -261 14 -740 31 -1037 37 -1574 173 -2030 515 -333 250 -610 704 -790 1295 -119 392 -172 519 -290 695 -264 393 -652 626 -1115 669 -119 11 -147 11 -287 -1z"
       id="path16"
       style="fill:#ffffff;fill-opacity:1" />
    <path
       d="M68470 25590 c-382 -11 -719 -23 -970 -36 -58 -2 -148 -7 -200 -9 -187 -10 -401 -22 -520 -30 -36 -3 -101 -7 -145 -10 -151 -10 -480 -35 -520 -40 -22 -2 -71 -7 -110 -10 -78 -7 -343 -34 -390 -40 -16 -2 -82 -9 -145 -15 -63 -6 -131 -13 -150 -15 -19 -2 -66 -7 -105 -11 -168 -15 -704 -87 -927 -124 -2289 -384 -4058 -1233 -5544 -2661 -527 -507 -862 -889 -1750 -1999 -486 -606 -639 -788 -918 -1089 -451 -487 -907 -843 -1371 -1070 -274 -135 -564 -237 -1235 -436 -525 -156 -803 -247 -1030 -338 -978 -390 -1580 -988 -1741 -1728 -29 -134 -36 -433 -13 -579 69 -453 297 -881 664 -1251 476 -479 1023 -736 1760 -826 201 -24 699 -24 925 0 634 69 1184 201 2115 509 904 298 1536 562 2085 870 505 284 877 560 1231 913 353 352 568 653 964 1345 415 725 639 1042 951 1345 553 537 1288 867 2202 989 266 36 456 47 782 47 657 -1 1224 -84 2020 -296 405 -108 737 -212 1645 -515 650 -218 1001 -329 1321 -420 735 -209 1366 -325 2004 -369 131 -10 900 -7 965 2 19 3 71 8 115 12 507 41 1079 174 1555 362 583 230 1057 539 1486 968 632 632 1025 1410 1118 2215 22 190 16 593 -12 774 -96 612 -338 1144 -760 1671 -120 149 -398 433 -556 569 -611 522 -1381 912 -2145 1086 -232 53 -746 128 -1056 155 -103 9 -169 14 -227 20 -117 11 -507 35 -733 45 -132 5 -287 13 -345 15 -181 9 -2002 13 -2290 5z"
       id="path18"
       style="fill:#ffffff;fill-opacity:1" />
    <path
       d="M24409 18656 c-2 -2 -56 -6 -119 -10 -63 -3 -137 -9 -165 -12 -573 -59 -1049 -165 -1662 -370 -910 -303 -1820 -722 -2653 -1222 -1818 -1091 -3358 -2602 -4435 -4352 -980 -1592 -1382 -3109 -1179 -4455 124 -826 514 -1639 1125 -2350 122 -142 412 -435 554 -560 1149 -1012 2683 -1636 4910 -2000 125 -20 269 -40 505 -70 19 -2 112 -11 205 -20 94 -8 190 -18 215 -21 83 -10 904 -13 1020 -4 630 50 1143 181 1592 406 805 403 1331 1083 1663 2149 134 432 227 872 409 1935 14 80 56 327 95 550 39 223 84 484 100 580 17 96 48 279 70 405 22 127 54 310 70 408 17 97 45 257 62 355 17 97 48 278 69 402 21 124 88 511 149 860 60 349 128 741 150 870 22 129 47 276 56 325 35 199 65 378 90 520 14 83 34 200 45 260 10 61 33 191 50 290 17 99 40 230 50 290 199 1142 248 1451 280 1775 92 938 -64 1638 -477 2150 -80 99 -257 270 -361 349 -348 263 -845 452 -1372 521 -315 41 -473 50 -816 50 -161 -1 -293 -3 -295 -4z"
       id="path20"
       style="fill:#ffffff;fill-opacity:1" />
    <path
       d="M4788 15620 c-726 -102 -1282 -629 -1394 -1322 -31 -191 -25 -365 22 -623 57 -318 139 -586 341 -1110 201 -522 268 -736 322 -1015 71 -376 75 -823 10 -1275 -65 -451 -160 -829 -429 -1715 -307 -1010 -425 -1524 -469 -2040 -11 -135 -11 -555 0 -685 159 -1819 1534 -3494 3283 -4000 743 -214 1488 -204 2182 31 898 303 1493 918 1658 1715 36 172 44 256 44 464 0 220 -11 329 -54 543 -114 563 -417 1193 -862 1792 -132 177 -337 430 -681 835 -481 567 -713 862 -908 1155 -508 761 -714 1407 -793 2480 -17 233 -29 520 -45 1080 -19 636 -59 1069 -136 1470 -144 746 -410 1321 -805 1740 -229 242 -519 404 -834 465 -101 19 -358 28 -452 15z"
       id="path22"
       style="fill:#ffffff;fill-opacity:1" />
    <path
       d="M36700 15620 c-949 -68 -1814 -335 -2588 -799 -760 -456 -1367 -1069 -1842 -1861 -398 -663 -680 -1466 -795 -2265 -50 -346 -59 -494 -59 -905 0 -413 10 -566 60 -905 242 -1630 1179 -3147 2606 -4218 1108 -831 2407 -1315 3868 -1442 309 -27 903 -34 1190 -15 244 16 288 20 510 46 1130 132 2162 467 3490 1135 474 238 473 238 2595 1389 1012 549 1007 547 1365 740 751 405 1006 567 1283 814 506 452 826 1206 827 1948 0 784 -371 1395 -1071 1762 -290 152 -607 254 -1029 331 -505 92 -876 215 -1320 436 -462 231 -843 490 -1635 1114 -647 510 -997 769 -1349 999 -860 563 -1698 945 -2706 1235 -256 73 -757 191 -1005 236 -541 97 -1027 163 -1485 200 -107 8 -215 18 -240 21 -81 9 -552 12 -670 4z"
       id="path24"
       style="fill:#ffffff;fill-opacity:1" />
    <path
       d="M64900 14499 c-949 -69 -1778 -463 -2351 -1117 -211 -241 -380 -482 -719 -1027 -297 -477 -465 -722 -634 -925 -489 -587 -1150 -1032 -2098 -1411 -377 -150 -704 -257 -1603 -524 -585 -174 -1105 -342 -1360 -440 -970 -372 -1623 -792 -2139 -1375 -410 -465 -659 -974 -742 -1525 -23 -147 -26 -519 -5 -665 84 -611 361 -1196 804 -1697 620 -701 1408 -1126 2427 -1309 146 -26 407 -60 535 -69 44 -3 103 -8 130 -11 92 -9 638 -12 784 -4 524 29 1022 95 1586 210 416 85 807 181 1575 387 719 192 1003 266 1260 328 829 199 1375 292 2030 346 311 25 1209 22 1505 -6 22 -2 81 -7 130 -10 370 -26 1000 -107 1600 -206 440 -73 564 -96 1735 -319 1047 -199 1678 -301 2287 -370 965 -108 1765 -113 2346 -15 1041 177 1722 637 2098 1420 141 294 247 664 293 1030 33 256 41 416 40 770 -1 358 -29 715 -89 1141 -244 1736 -874 2958 -1882 3648 -568 389 -1197 619 -2378 870 -143 30 -399 85 -570 121 -940 200 -1448 358 -1970 615 -432 213 -736 402 -1520 949 -672 468 -1015 681 -1421 884 -196 98 -337 150 -560 206 -135 34 -381 77 -494 86 -41 4 -86 8 -100 11 -60 9 -416 12 -530 3z"
       id="path26"
       style="fill:#ffffff;fill-opacity:1" />
  </g>
</svg>
