<?xml version="1.0" encoding="UTF-8" standalone="no"?>
<svg
   version="1.0"
   width="512.000000pt"
   height="512.000000pt"
   viewBox="0 0 512.000000 512.000000"
   preserveAspectRatio="xMidYMid meet"
   id="svg8"
   sodipodi:docname="location-_1_.svg"
   inkscape:version="1.2.2 (b0a8486541, 2022-12-01)"
   xmlns:inkscape="http://www.inkscape.org/namespaces/inkscape"
   xmlns:sodipodi="http://sodipodi.sourceforge.net/DTD/sodipodi-0.dtd"
   xmlns="http://www.w3.org/2000/svg"
   xmlns:svg="http://www.w3.org/2000/svg">
  <defs
     id="defs12" />
  <sodipodi:namedview
     id="namedview10"
     pagecolor="#ffffff"
     bordercolor="#000000"
     borderopacity="0.25"
     inkscape:showpageshadow="2"
     inkscape:pageopacity="0.0"
     inkscape:pagecheckerboard="0"
     inkscape:deskcolor="#d1d1d1"
     inkscape:document-units="pt"
     showgrid="false"
     inkscape:zoom="1.1499023"
     inkscape:cx="164.7966"
     inkscape:cy="341.76815"
     inkscape:window-width="1920"
     inkscape:window-height="940"
     inkscape:window-x="0"
     inkscape:window-y="0"
     inkscape:window-maximized="1"
     inkscape:current-layer="g6" />
  <g
     transform="translate(0.000000,512.000000) scale(0.100000,-0.100000)"
     fill="#000000"
     stroke="none"
     id="g6">
    <path
       d="M2435 5114 c-16 -2 -68 -9 -115 -15 -561 -75 -1080 -487 -1290 -1026 -84 -214 -114 -375 -114 -618 -1 -244 40 -440 135 -656 51 -116 51 -117 378 -629 149 -233 267 -427 263 -431 -4 -4 -52 -14 -107 -24 -369 -65 -748 -198 -965 -341 -219 -143 -335 -350 -303 -539 34 -197 194 -370 468 -504 714 -351 2020 -434 3003 -191 426 105 760 273 904 453 195 246 140 533 -143 746 -205 155 -612 306 -1014 376 -55 10 -103 20 -107 24 -4 4 123 211 283 461 160 250 310 496 334 545 60 126 101 247 132 394 23 110 27 150 27 306 0 99 -6 216 -13 260 -112 713 -656 1268 -1361 1390 -84 15 -338 27 -395 19z m392 -323 c512 -105 913 -493 1042 -1006 77 -310 38 -656 -106 -932 -47 -89 -1193 -1893 -1203 -1893 -3 0 -219 336 -480 747 -261 410 -526 825 -588 922 -62 97 -129 210 -149 251 -276 578 -105 1278 406 1664 198 149 420 237 681 270 79 10 298 -3 397 -23z m-662 -3776 c203 -317 290 -446 314 -462 46 -31 116 -31 162 0 24 16 112 145 314 462 l281 440 39 -3 c22 -1 94 -12 160 -23 468 -79 818 -213 986 -379 117 -116 117 -186 1 -300 -218 -212 -717 -366 -1397 -432 -171 -16 -771 -16 -935 0 -365 37 -639 89 -885 168 -238 76 -401 161 -507 264 -109 106 -114 177 -20 281 134 149 451 287 848 368 164 34 321 60 344 57 8 0 141 -199 295 -441z"
       id="path2"
       style="fill:#c83737" />
    <path
       d="M2465 4204 c-11 -2 -45 -9 -75 -15 -217 -44 -429 -224 -522 -444 -41 -97 -53 -162 -53 -285 0 -123 12 -188 53 -285 93 -219 290 -387 522 -446 71 -18 269 -18 340 0 232 59 429 227 522 446 41 97 53 162 53 285 0 65 -6 139 -14 170 -68 269 -277 482 -546 557 -51 14 -243 26 -280 17z m176 -304 c235 -45 399 -275 361 -506 -32 -196 -180 -344 -376 -376 -289 -48 -556 219 -508 508 42 252 277 420 523 374z"
       id="path4" />
    <path
       style="fill:#d1dbe8;stroke-width:0.869639;fill-opacity:1"
       d="m 313.50488,681.71786 c -22.99226,-1.26873 -37.90413,-2.31893 -49.1346,-3.46042 -90.6986,-9.21874 -163.59126,-33.5781 -197.749631,-66.08422 -26.159344,-24.89401 -31.373292,-52.91249 -15.032006,-80.77833 5.63591,-9.61059 19.631462,-23.66552 31.027068,-31.15872 22.945369,-15.08775 58.799869,-29.39509 98.269219,-39.21326 10.0148,-2.49122 42.34752,-9.24542 44.25835,-9.24542 2.55052,0 -4.34792,-11.66415 -41.66709,-70.45235 -31.14797,-49.06682 -35.16454,-55.64734 -39.53793,-64.77652 -16.637,-34.72873 -22.95093,-67.47811 -20.89016,-108.35409 1.27947,-25.3787 5.37593,-44.53963 14.42123,-67.45446 C 160.5816,82.188906 208.60551,35.477581 268.25615,13.527899 302.90284,0.77894008 346.87044,-2.3184372 384.64831,5.3284423 458.68063,20.313834 520.82951,74.121616 547.24104,146.09936 c 7.85355,21.4028 11.29932,38.528 12.33612,61.30956 1.3644,29.97992 -0.46279,48.70592 -7.0854,72.61486 -7.6267,27.5339 -13.65385,38.87332 -56.96138,107.16653 -32.21804,50.80578 -40.32785,64.58718 -38.007,64.58718 0.29044,0 7.62802,1.39578 16.30574,3.10172 43.85247,8.62091 77.62667,19.55754 107.83753,34.9195 14.99508,7.62488 25.05676,14.46936 34.54746,23.50098 16.98241,16.16097 25.04921,33.78086 23.99018,52.40052 -1.50491,26.45908 -18.46942,47.88857 -53.23147,67.24178 -44.52487,24.7885 -114.12994,41.74838 -195.20042,47.56228 -12.86699,0.92275 -68.03593,1.77818 -78.26752,1.21359 z M 409.6,640.09531 c 90.50337,-9.64547 155.30831,-30.78291 182.38899,-59.48986 13.19068,-13.98282 12.63853,-23.24216 -2.26495,-37.98172 -8.77454,-8.67805 -17.48286,-14.49402 -33.15504,-22.14307 -19.46109,-9.49829 -38.55839,-15.86979 -67.83185,-22.63099 -15.56058,-3.59399 -40.99223,-8.11756 -51.36879,-9.13706 l -6.14757,-0.604 -19.90011,31.18646 c -43.07884,67.511 -55.90961,86.71643 -59.71357,89.38083 -1.03642,0.72593 -3.90061,1.77109 -6.36487,2.32256 -3.71334,0.83101 -5.31277,0.76074 -9.34144,-0.41043 -4.08511,-1.18758 -5.44231,-2.14125 -8.50335,-5.9751 -4.36457,-5.46647 -19.18591,-27.78666 -40.85352,-61.52333 -17.51031,-27.26374 -28.03892,-43.17651 -33.30462,-50.33613 l -3.44207,-4.68008 -5.93965,0.55203 c -7.43087,0.69064 -34.88424,5.7292 -50.38956,9.24809 -41.72847,9.47018 -78.70469,25.03204 -96.803135,40.74071 -13.598362,11.80279 -18.083384,22.29462 -13.67791,31.99679 2.243309,4.94044 12.389796,15.40726 20.819175,21.47646 25.251,18.18086 72.20297,33.7388 128.82229,42.6864 20.52775,3.24401 42.53953,5.81103 56.52654,6.59212 21.71464,1.21265 105.43105,0.32945 120.44501,-1.27068 z m -59.17274,-98.09925 c 20.90185,-31.99689 108.10272,-169.1565 137.20192,-215.80703 17.96476,-28.80031 22.9058,-39.26547 27.96112,-59.22196 5.05747,-19.96501 6.94706,-43.84541 4.99119,-63.07809 C 513.10028,130.32404 463.17865,68.837598 393.87104,47.824857 379.96089,43.607568 367.36758,41.568154 348.69678,40.50915 331.73933,39.547328 321.84011,40.169015 307.66248,43.086175 227.964,59.484773 171.17441,121.89799 162.10211,203.06072 c -1.25837,11.2577 -0.5554,35.49258 1.36217,46.96051 2.8867,17.26379 8.73765,35.76313 15.68517,49.59286 5.30709,10.56429 14.2561,24.85705 82.74932,132.16171 74.97522,117.45966 78.84702,123.47816 79.43456,123.47679 0.23915,-5.7e-4 4.33142,-5.966 9.09393,-13.25653 z"
       id="path337"
       transform="matrix(7.5,0,0,-7.5,0,5120)" />
    <path
       style="fill:#d1dbe8;fill-opacity:1;stroke-width:0.869639"
       d="m 327.14639,319.52686 c -18.55732,-1.79197 -40.41194,-13.10717 -56.3209,-29.16006 -14.16226,-14.29038 -24.49715,-33.79582 -27.22622,-51.38508 -1.24756,-8.0407 -1.24756,-27.27646 0,-35.31716 4.13107,-26.62539 23.64626,-53.6567 49.90391,-69.124 26.50212,-15.61131 63.02858,-16.42219 91.48856,-2.03103 27.439,13.87491 48.66682,41.36807 53.80201,69.68155 1.5169,8.36364 1.52454,29.83648 0.0136,38.26412 -3.43503,19.15979 -16.40563,41.4638 -31.83567,54.74403 -23.64153,20.34764 -47.0772,27.48991 -79.82529,24.32763 z m 32.44936,-41.18238 c 25.27329,-8.48078 41.51695,-30.76234 41.56958,-57.02134 0.0203,-10.10322 -1.66188,-17.08045 -6.49947,-26.95881 -4.88302,-9.97115 -16.2569,-21.51895 -25.9389,-26.33555 -40.41812,-20.10721 -87.13571,8.43697 -87.22562,53.29436 -0.0296,14.78202 5.32139,28.7465 15.10786,39.4267 9.15766,9.99397 17.96558,15.40509 30.80991,18.92797 8.85257,2.42805 22.67432,1.85531 32.17664,-1.33333 z"
       id="path1085"
       transform="matrix(7.5,0,0,-7.5,0,5120)" />
    <path
       style="fill:#d1dbe8;fill-opacity:1;stroke-width:0.869639"
       d="m 324.07948,318.73385 c -34.74412,-6.26531 -65.72032,-34.0288 -77.63412,-69.58226 -2.44294,-7.29028 -2.477,-7.67296 -2.477,-27.82845 0,-20.15783 0.0338,-20.53732 2.47789,-27.82845 10.14144,-30.25348 35.11004,-56.09822 63.58008,-65.81109 18.25107,-6.22655 43.53673,-6.21064 61.86009,0.0389 24.55932,8.37646 45.62091,26.6986 57.61223,50.11866 8.35039,16.30905 9.98257,24.40193 9.49524,47.08057 -0.34732,16.16251 -0.47219,17.15961 -3.11315,24.85816 -9.44776,27.54081 -29.35115,49.99396 -54.69758,61.70474 -11.90068,5.49845 -21.29843,7.40344 -38.11055,7.72525 -8.13112,0.15564 -16.67804,-0.0586 -18.99313,-0.47606 z m 31.85128,-39.09721 c 17.60982,-4.50383 31.58362,-15.78771 39.36766,-31.78951 11.31612,-23.26274 7.12019,-49.49306 -10.91794,-68.25215 -7.1368,-7.42204 -14.87473,-12.42721 -23.8469,-15.42503 -6.29612,-2.10368 -8.28897,-2.34732 -19.20025,-2.34732 -10.9289,0 -12.89859,0.2417 -19.24556,2.36164 -14.95436,4.99486 -27.83774,16.32856 -34.58005,30.42058 -5.04868,10.55218 -6.14852,15.54947 -6.07178,27.58793 0.0531,8.33604 0.44388,11.15898 2.34728,16.95796 5.57898,16.99719 19.07078,31.74526 34.66493,37.89271 11.96039,4.71495 25.51891,5.65299 37.48261,2.59319 z"
       id="path1089"
       transform="matrix(7.5,0,0,-7.5,0,5120)" />
    <path
       style="fill:#d1dbe8;fill-opacity:1;stroke-width:0.869639"
       d="M 297.41656,680.48013 C 223.75504,675.28405 168.53565,664.17944 122.65129,645.33489 65.742939,621.96282 36.464714,587.45737 43.87479,552.49396 c 3.032107,-14.30658 8.353359,-23.30795 21.782959,-36.84783 11.891178,-11.98883 18.517954,-16.64704 36.959661,-25.98037 28.63658,-14.49292 62.12001,-25.28615 106.49761,-34.32902 9.12523,-1.85946 16.64272,-3.81848 16.83202,-4.38634 0.49536,-1.48609 -8.31402,-16.39407 -29.83043,-50.48161 -37.48113,-59.37977 -45.02073,-71.53009 -48.83181,-78.69418 -11.74594,-22.08009 -19.41567,-46.57945 -22.59911,-72.1882 -1.91278,-15.38711 -1.20562,-51.9866 1.27702,-66.09257 8.66687,-49.24379 35.16719,-95.792471 73.04837,-128.311879 34.63419,-29.731984 73.89122,-47.1787109 117.53754,-52.2363615 13.41897,-1.5549651 40.91173,-1.3188907 53.4828,0.4592455 43.17916,6.1075463 79.79804,22.719987 113.39428,51.442195 37.43017,31.999942 64.64037,79.38409 73.16929,127.41786 1.55002,8.72955 1.99738,15.2875 2.33808,34.27523 0.4774,26.60535 -0.49842,37.37462 -5.07919,56.05446 -7.22041,29.44399 -13.85902,42.86765 -48.37598,97.81916 -44.31703,70.55335 -49.90417,79.94382 -48.37199,81.30034 0.41748,0.36962 6.62912,1.7616 13.80364,3.0933 50.52035,9.37727 99.95381,26.99363 128.09893,45.64999 39.32976,26.07024 51.00749,61.29829 31.35341,94.58338 -1.60451,2.71733 -6.83068,8.89585 -11.61369,13.73005 -35.63836,36.01977 -111.54561,60.76568 -216.10531,70.45076 -17.02243,1.57675 -88.58228,2.43264 -105.22633,1.25856 z m 92.18174,-39.08841 c 19.68118,-0.75124 37.18696,-2.55662 59.8224,-6.16951 69.89873,-11.1567 119.8557,-30.13151 142.48403,-54.11873 13.52579,-14.33805 13.06887,-23.59039 -1.90652,-38.60585 -21.40665,-21.46392 -62.73431,-38.14684 -122.13239,-49.30171 -14.02239,-2.63338 -36.6994,-6.00464 -37.00947,-5.50198 -19.55194,31.69638 -73.62944,114.34998 -77.58894,118.58914 -6.29355,6.73806 -18.12177,6.07295 -24.69386,-1.38858 -3.73122,-4.23617 -19.60671,-27.91617 -42.01813,-62.67454 -7.55575,-11.71839 -18.79271,-28.81817 -24.97102,-37.99952 l -11.23327,-16.69337 -4.51315,0.46709 c -6.77591,0.70128 -18.39419,2.66978 -35.82015,6.06904 -54.82536,10.69471 -97.5051,28.11643 -117.512449,47.96817 -8.225125,8.16115 -11.174588,13.73078 -11.152533,21.05993 0.02105,6.99543 1.243378,9.40832 8.851883,17.47374 15.487389,16.41745 41.506899,29.78063 79.381669,40.76911 31.33039,9.08978 73.38068,16.56321 112.17666,19.93673 11.39439,0.9908 82.94309,1.07098 107.83524,0.12084 z m -44.3939,-90.70841 c 30.08915,-45.61332 142.65957,-223.08824 153.93051,-242.68191 11.48098,-19.9588 16.88714,-35.71803 20.48659,-59.71945 9.21309,-61.43363 -14.1835,-124.96016 -60.72716,-164.886606 -24.66096,-21.154862 -52.99845,-34.8829 -83.1892,-40.300838 -13.04614,-2.341218 -35.239,-3.849273 -46.94117,-3.189757 -20.43446,1.151652 -45.65956,8.086152 -66.56779,18.299801 -29.21453,14.271265 -52.52044,34.548892 -70.30852,61.17288 -23.04851,34.49747 -33.40601,74.31337 -30.22398,116.18594 2.1005,27.64051 10.11135,53.36596 23.65929,75.97758 9.18605,15.3316 61.543,97.78742 126.59518,199.372 28.52771,44.54849 28.3763,44.32035 29.41518,44.32035 0.4783,0 2.22029,-2.0475 3.87107,-4.54999 z"
       id="path1091"
       transform="matrix(7.5,0,0,-7.5,0,5120)" />
    <path
       style="fill:#d1dbe8;fill-opacity:1;stroke-width:0.869639"
       d="m 297.41656,680.4973 c -36.47026,-2.73771 -52.80961,-4.58959 -77.8327,-8.82148 C 147.13197,659.42281 92.760613,637.56274 64.835993,609.45926 47.067627,591.57709 39.785759,571.78749 43.87479,552.49396 c 2.777888,-13.10708 8.092987,-22.68497 19.014191,-34.26387 12.472166,-13.22327 21.054861,-19.33185 41.467709,-29.51394 27.3328,-13.63381 60.10255,-24.11631 104.25099,-33.34821 9.26874,-1.93819 17.02058,-3.69231 17.22631,-3.89804 1.28431,-1.28431 -3.88655,-9.97328 -40.18409,-67.52425 -35.10082,-55.65351 -36.31013,-57.65973 -42.19826,-70.00595 -10.32462,-21.64865 -16.59434,-43.67285 -19.13706,-67.22451 -1.52466,-14.122 -0.57263,-50.54677 1.65241,-63.22135 7.33572,-41.78668 26.03796,-79.10796 56.30237,-112.354238 14.16611,-15.561867 38.0858,-33.846899 58.64946,-44.833648 C 282.8061,3.9264175 333.2787,-3.6425509 381.38206,5.2418156 439.02326,15.887759 490.98646,50.90079 524.18919,101.46589 c 11.6591,17.75587 22.16625,40.83025 28.04628,61.59143 4.916,17.35739 6.23429,27.78062 6.71502,53.09283 0.50762,26.72841 -0.60265,38.58724 -5.38958,57.56628 -7.86094,31.16683 -13.11487,41.31349 -59.77828,115.44705 -33.545,53.29252 -38.26925,61.42938 -36.35329,62.61352 0.56063,0.34649 6.75806,1.71485 13.77207,3.04081 51.01312,9.64374 99.76955,27.05454 127.80707,45.63957 21.91078,14.52384 35.89979,32.67635 39.69506,51.50935 1.63224,8.09955 1.65495,12.12342 0.1171,20.74331 -2.27526,12.75319 -7.66428,23.05745 -17.74274,33.92561 -33.50954,36.1352 -111.68812,62.52791 -213.652,72.12788 -15.18566,1.42974 -27.4733,1.87176 -59.57027,2.1429 -22.24102,0.18788 -44.9386,0.003 -50.43907,-0.40913 z m 92.18174,-39.12736 c 48.16744,-1.90835 107.24995,-12.99456 146.24198,-27.44076 13.49006,-4.99796 31.23934,-13.65181 40.2956,-19.64657 3.82641,-2.53287 10.1666,-7.76776 14.0893,-11.63308 15.33823,-15.11383 15.30515,-24.53938 -0.14032,-39.98485 -22.9617,-22.9617 -68.32664,-40.46257 -132.76956,-51.21982 -9.74201,-1.6262 -19.66944,-3.16317 -22.06095,-3.4155 l -4.34819,-0.45876 -4.74635,7.54038 c -29.53843,46.92694 -68.75267,106.73248 -72.89507,111.1721 -6.28693,6.73799 -18.11647,6.0728 -24.69433,-1.38858 -3.73021,-4.23124 -21.25099,-30.37221 -43.75575,-65.28346 -7.55399,-11.71839 -18.40736,-28.24047 -24.11859,-36.71574 l -10.38407,-15.40959 -4.05876,0.4785 c -18.48055,2.17873 -54.50718,9.4494 -72.76025,14.68404 -25.67253,7.3624 -53.4084,18.99017 -66.78703,27.99927 -21.380146,14.3973 -29.832176,29.19566 -23.58018,41.28568 2.360999,4.56567 15.806214,17.33651 23.88794,22.68979 27.54865,18.24803 76.43816,33.43542 134.74594,41.85846 13.79392,1.99265 35.14492,4.4286 45.22123,5.15934 9.20817,0.66777 83.90231,0.47062 102.61741,-0.27085 z m -45.77338,-88.93172 c 8.82268,-11.62354 142.98746,-223.09361 156.0024,-245.89045 14.99288,-26.26138 21.46505,-52.40069 21.42487,-86.52909 -0.0224,-18.95012 -1.06328,-27.34512 -5.50544,-44.39929 C 497.14009,104.18552 437.79688,50.804666 366.98769,41.806541 341.92796,38.622059 323.77954,39.122093 304.02676,43.541269 224.9539,61.231786 168.99716,125.13749 161.59686,206.2041 c -1.32912,14.55986 0.0779,38.01713 3.12955,52.17546 2.63026,12.20313 8.16891,28.83141 12.99107,39.00218 5.60069,11.81277 22.13435,38.18506 115.06026,183.52866 48.41981,75.73248 47.50098,74.31814 48.29393,74.33852 0.33438,0.009 1.57335,-1.25622 2.75325,-2.8107 z"
       id="path1093"
       transform="matrix(7.5,0,0,-7.5,0,5120)" />
    <path
       style="fill:#d1dbe8;fill-opacity:1;stroke-width:0.869639"
       d="M 303.06921,680.77456 C 238.62918,676.71167 191.1634,668.64411 147.14996,654.27361 94.398296,637.05007 61.632664,614.57887 48.283544,586.46942 c -8.469501,-17.83437 -7.11965,-36.41243 4.021234,-55.34447 4.193253,-7.12572 22.224387,-24.96459 31.180572,-30.84809 20.71333,-13.60702 55.84613,-27.85947 91.74692,-37.21932 10.22097,-2.66476 48.88929,-11.28005 50.62862,-11.28005 1.98902,0 -4.75943,-11.38744 -39.09579,-65.97086 -15.75416,-25.04388 -30.77676,-49.05169 -33.38355,-53.35068 -16.00481,-26.3943 -25.93822,-55.71635 -29.09788,-85.89282 -1.34834,-12.87743 -0.54891,-49.60287 1.33317,-61.24507 8.45859,-52.32315 37.60173,-101.755517 80.0528,-135.784912 9.17328,-7.35344 23.69287,-17.026628 33.94784,-22.616615 54.92649,-29.9404533 124.37757,-33.4984421 183.46193,-9.39878 68.7468,28.040836 120.69282,92.242277 133.58926,165.106447 2.61334,14.76521 3.3186,52.58591 1.27083,68.15035 -2.88861,21.95551 -8.92774,42.52105 -17.82687,60.70732 -7.9968,16.34226 -13.42312,25.40523 -50.93654,85.07354 -25.57208,40.67457 -33.3494,53.9085 -32.29854,54.95936 0.23868,0.23869 8.58092,2.111 18.53829,4.16072 43.52546,8.95964 75.41368,19.28927 104.42381,33.82627 33.60781,16.8409 54.03881,38.5218 58.86389,62.46497 1.63224,8.09955 1.65495,12.12342 0.1171,20.74331 -2.28543,12.81022 -7.77189,23.29635 -17.79335,34.00799 -17.04262,18.21634 -45.56509,34.20432 -83.59035,46.85567 -42.95773,14.29243 -104.13341,24.72891 -157.83949,26.92717 -18.36864,0.75184 -66.22951,0.92301 -76.52824,0.27369 z m 88.26837,-39.49319 c 32.80192,-1.31523 73.5293,-7.50348 109.1397,-16.58303 42.67665,-10.88123 73.06466,-25.27965 90.51574,-42.88807 13.32552,-13.44566 13.92355,-22.30231 2.41551,-35.77261 -19.72865,-23.09263 -66.7186,-42.38558 -131.07052,-53.81441 -20.20474,-3.58834 -30.40933,-4.75539 -31.57027,-3.61054 -0.55444,0.54675 -9.12771,13.71256 -19.05172,29.25735 -25.39105,39.77211 -49.64745,76.79677 -55.11309,84.1239 -3.34404,4.48296 -5.59138,6.60676 -8.0188,7.57803 -6.03693,2.4155 -13.71824,1.36276 -18.00027,-2.46697 -3.49735,-3.12795 -13.41675,-17.67284 -41.28525,-60.53687 -14.7712,-22.71932 -29.6408,-45.29029 -33.04355,-50.15772 l -6.18682,-8.84985 -4.37171,0.47466 c -8.42379,0.91465 -38.41406,6.42587 -51.76702,9.51306 -48.13703,11.12926 -85.10984,27.6642 -102.282715,45.74278 -7.73032,8.13802 -10.299314,13.20295 -10.320063,20.34665 -0.01392,4.79218 0.32886,5.82943 3.400174,10.28883 19.451304,28.24243 77.666604,51.15593 160.076494,63.00601 11.87025,1.70687 33.8819,4.14152 42.61231,4.71324 8.7385,0.57224 87.44471,0.29623 103.92187,-0.36444 z m -47.52101,-88.84315 c 6.37192,-8.42758 125.31444,-195.33098 149.93899,-235.61052 11.95424,-19.5541 18.17391,-33.62794 22.23698,-50.31764 10.7676,-44.22976 5.83323,-88.21332 -14.35757,-127.97921 C 483.44284,102.70135 454.95556,74.735773 419.05236,57.460627 393.3157,45.077208 369.81139,40.10621 336.98514,40.103986 320.04308,40.102839 313.50836,40.983863 295.75006,45.663385 231.8501,62.501783 182.9611,112.17444 166.54365,176.9409 c -4.14046,16.33402 -5.10297,24.55565 -5.09404,43.5126 0.0119,25.31719 3.03444,42.84356 11.18525,64.85906 6.5511,17.6946 8.28946,20.52268 121.29958,197.33712 47.90734,74.95531 46.36468,72.57938 47.13723,72.59924 0.33438,0.009 1.56959,-1.25622 2.7449,-2.8107 z"
       id="path1095"
       transform="matrix(7.5,0,0,-7.5,0,5120)" />
  </g>
</svg>
